# xmcd CD database file
#
# Track frame offsets:
#	150
#	9300
#	20787
#	31320
#	39795
#	53762
#	66317
#	75455
#	90400
#	99227
#	111927
#	125465
#	139727
#	153450
#	166165
#	178080
#	187337
#	200400
#	214875
#	226605
#	240075
#	252907
#	264187
#	280857
#	290782
#	309417
#	317825
#
# Disc length: 4394 seconds
#
# Revision: 0
# Processed by: cddbd v1.4PL0 Copyright (c) Steve Scherf et al.
# Submitted via: CDex 1.50Beta7
#
DISCID=6a11281b
DTITLE=Matelo Ferret - Tziganskaia and other rare recordings
DYEAR=1900
DGENRE=Jazz
TTITLE0=Montange Sainte Genevieve
TTITLE1=Gagoug
TTITLE2=Chez Jacket - A la petite Chaumiere
TTITLE3=Choti
TTITLE4=Tziganskaia
TTITLE5=Song D'autome
TTITLE6=Mademoiselle de Bucarest
TTITLE7=Gagoug
TTITLE8=In einer kleiner American bar
TTITLE9=Cher ami
TTITLE10=Sombre dimanche
TTITLE11=Pouro rom
TTITLE12=Madona
TTITLE13=Soline
TTITLE14=Charmaine
TTITLE15=Tchoucar Valsarie
TTITLE16=Fascination
TTITLE17=Ne te presse pas
TTITLE18=Kleine Harmonika
TTITLE19=Amoureuse
TTITLE20=Ambiance Tzigane
TTITLE21=Choti
TTITLE22=Petite fleur
TTITLE23=Berusovie
TTITLE24=Route de Acacias
TTITLE25=Valse des Officiers
TTITLE26=Caractere Slave
EXTD=
EXTT0=
EXTT1=
EXTT2=
EXTT3=
EXTT4=
EXTT5=
EXTT6=
EXTT7=
EXTT8=
EXTT9=
EXTT10=
EXTT11=
EXTT12=
EXTT13=
EXTT14=
EXTT15=
EXTT16=
EXTT17=
EXTT18=
EXTT19=
EXTT20=
EXTT21=
EXTT22=
EXTT23=
EXTT24=
EXTT25=
EXTT26=
PLAYORDER=
